<?xml version="1.0" encoding="utf-8"?>
<!-- Generator: Adobe Illustrator 22.0.1, SVG Export Plug-In . SVG Version: 6.00 Build 0)  -->
<svg version="1.1" id="Calque_1" xmlns="http://www.w3.org/2000/svg" xmlns:xlink="http://www.w3.org/1999/xlink" x="0px" y="0px"
	 viewBox="0 0 800 800" style="enable-background:new 0 0 800 800;" xml:space="preserve">
<style type="text/css">
	.st0{fill:#FFFFFF;stroke:#1D1D1B;stroke-width:13;stroke-miterlimit:10;}
	.st1{fill:#1D1D1B;}
	.st2{fill:none;stroke:#1D1D1B;stroke-width:13;stroke-miterlimit:10;}
	.st3{opacity:0.15;fill:#93C01F;stroke:#1D1D1B;stroke-width:10.0465;stroke-miterlimit:10;}
	.st4{fill:#FFFFFF;stroke:#1D1D1B;stroke-width:13.9645;stroke-miterlimit:10;}
	.st5{fill:none;stroke:#1D1D1B;stroke-width:9;stroke-linecap:round;stroke-miterlimit:10;}
	.st6{fill:none;stroke:#1D1D1B;stroke-width:3.8353;stroke-linecap:round;stroke-miterlimit:10;}
	.st7{fill:none;stroke:#1D1D1B;stroke-width:4.4165;stroke-linecap:round;stroke-miterlimit:10;}
	.st8{fill:none;stroke:#1D1D1B;stroke-width:5.227;stroke-linecap:round;stroke-miterlimit:10;}
	.st9{fill:none;stroke:#1D1D1B;stroke-width:13.9645;stroke-linecap:round;stroke-miterlimit:10;}
	.st10{fill:none;stroke:#1D1D1B;stroke-width:3.1031;stroke-linecap:round;stroke-miterlimit:10;}
	.st11{fill:none;stroke:#1D1D1B;stroke-width:3.3708;stroke-linecap:round;stroke-miterlimit:10;}
	.st12{fill:#FFFFFF;}
	.st13{fill:none;stroke:#1D1D1B;stroke-width:9.3839;stroke-linecap:round;stroke-miterlimit:10;}
	.st14{fill:#8CBF4A;stroke:#1D1D1B;stroke-width:9.3839;stroke-linecap:round;stroke-miterlimit:10;}
	.st15{fill:none;stroke:#1D1D1B;stroke-width:2.7721;stroke-linecap:round;stroke-miterlimit:10;}
	.st16{fill:none;stroke:#1D1D1B;stroke-width:2.5953;stroke-linecap:round;stroke-miterlimit:10;}
</style>
<g>
	<path class="st0" d="M652.1,414.5l4.5-2.6c21.6-20.3,35.2-49.2,35.2-81.2c0-33.1-14.7-60.7-37.6-81.1l-3.3-3.6
		c-11.5-61.8-64-94.7-141.7-102.8l-185.6-14.5c-79.2,0-118.5,28.6-175.9,144l-2.6,2.1c-22.7,20.4-36.8,48.1-36.8,81
		c0,35.7,16.8,67.5,43,87.9l3.8,7.4c0,0,86.4,216.7,427.5,220.1c-3.3,2.1,104.1-15.1,78-117.5C653,524.4,651.7,468.7,652.1,414.5z"
		/>
	<path class="st1" d="M571,406.4c-32.1,33.9-95,26.3-141.3,20.3c-46.3-6-87.5-29.7-115.9-66.6c-17.8-23.1-49-29.7-74.2-17.3
		c-3.3,20.1-15.6,37.6-33.4,47.5c-1.6,14.9,2.2,30.5,12.1,43.4c48.1,62.5,117.7,102.4,195.9,112.6c12.9,1.7,25.8,2.5,38.6,2.5
		c64.8,0,99,3.6,151.2-36.5c26.4-20.3,18.3-60.4,20.5-109.3C626,367,615.4,359.6,571,406.4z"/>
	<path class="st1" d="M606.8,509.9c-4.4-26.2-47.7-56.4-109.6-78c-23,0.5-46.8-2.5-67.4-5.1c-23.2-3-45.1-10.4-64.7-21.8
		c-65.9-4.1-115.4,8.7-121.1,34.8c-7.8,35.3,67.1,81.8,167.3,103.8c7.8,1.7,15.5,3.2,23.2,4.5c6.2,0.4,12.3,0.6,18.5,0.6
		c64.8,0,99,3.6,151.2-36.5C605.1,511.4,606,510.7,606.8,509.9z"/>
	<path class="st2" d="M624.4,402.8c-2.2,48.9,5.9,89-20.5,109.3c-52.2,40.2-86.4,36.5-151.2,36.5c-12.8,0-25.7-0.8-38.6-2.5
		c-78.2-10.1-147.8-50.1-195.9-112.6c-9.9-12.8-13.8-28.4-12.1-43.4c17.7-9.9,30.1-27.4,33.4-47.5c25.2-12.4,56.4-5.7,74.2,17.3
		c28.5,37,69.7,60.6,115.9,66.6c46.3,6,109.2,13.5,141.3-20.3C615.4,359.6,626,367,624.4,402.8z"/>
	<path class="st3" d="M540,185.7"/>
	<g>
		<g>
			<path class="st0" d="M273.8,300.6c-4.1,0-8-1.6-10.9-4.5c-2.9-2.9-4.5-6.8-4.5-10.9c0-4.1,1.6-8,4.5-10.9
				c19.4-19.4,45.3-30.1,72.8-30.1s53.4,10.7,72.8,30.1c2.9,2.9,4.5,6.8,4.5,10.9c0,4.1-1.6,8-4.5,10.9c-2.9,2.9-6.8,4.5-10.9,4.5
				c-4.1,0-8-1.6-10.9-4.5c-13.6-13.6-31.7-21.1-51-21.1s-37.4,7.5-51,21.1C281.8,299,277.9,300.6,273.8,300.6z"/>
		</g>
	</g>
	<g>
		<g>
			<path class="st4" d="M565.5,299.6c-3.6,0-7.1-1.4-9.8-4.1c-15.7-15.7-41.3-15.7-57,0c-5.4,5.4-14.2,5.4-19.6,0
				c-5.4-5.4-5.4-14.2,0-19.6c26.5-26.5,69.7-26.5,96.3,0c5.4,5.4,5.4,14.2,0,19.6C572.6,298.2,569,299.6,565.5,299.6z"/>
		</g>
	</g>
	<path class="st5" d="M153.3,396.1c-10.8-38.6,11.8-78.6,50.3-89.3c0,0,22.4-7.2,56.8,9.6c40.3,19.7,65.9-8.6,65.9-8.6"/>
	
		<ellipse transform="matrix(0.959 -0.2834 0.2834 0.959 -61.4768 100.4813)" class="st1" cx="316.5" cy="262.7" rx="28.4" ry="21.4"/>
	<ellipse transform="matrix(0.973 -0.2307 0.2307 0.973 -49.5902 124.7331)" class="st1" cx="508.7" cy="274.5" rx="22" ry="15.7"/>
	<path class="st6" d="M274.8,235c31-43.5,91.4-53.5,134.9-22.5"/>
	<path class="st7" d="M253.1,236.4c27.9-54.8,94.9-76.6,149.7-48.8"/>
	<path class="st8" d="M640.4,378"/>
	<path class="st8" d="M638.6,341.6c-10.3-12.6-32.2-15.4-44.1-11.7c-15.1,4.7-29.1,13.6-44.3-2.5"/>
	<path class="st9" d="M474.8,279.5c0.3,29.9,14.3,59.2,40.5,77.9c0,0,3.2,45.1-43.4,43"/>
	<path class="st10" d="M485.1,206.1c38.5-19.7,85.6-4.4,105.3,34"/>
	<path class="st11" d="M484.8,189.4c43.5-17.7,93,3.2,110.8,46.6"/>
	<line x1="293.9" y1="568.9" x2="293.9" y2="569.1"/>
	<path d="M293.9,569.1"/>
	<path class="st12" d="M550.1,430.8l0.1,9c0,2.9,2.6,5.2,5.6,4.8c5.5-0.8,11-1.7,16.4-2.6c2.5-0.4,4.2-2.7,4-5.3l-1.5-15.4
		c-0.4-3.8-4.8-5.7-7.8-3.4c-4.3,3.3-9,6.2-14,8.5C551.1,427.2,550.1,428.9,550.1,430.8z"/>
	<path class="st12" d="M615.4,379.6c-1.1-0.5-4.7-0.7-14.1,6.3l12.4,46.7c1.6-0.4,3.2-0.9,4.8-1.3c0-2,0-4,0-6c0-0.4,0-0.8,0-1.3
		c0-1.9,0-3.8,0-5.7c0-0.6,0-1.2,0-1.8c0-1.8,0.1-3.7,0.1-5.6c0-0.7,0-1.4,0.1-2.1c0-1.5,0.1-3,0.2-4.6c0-0.5,0-1,0.1-1.5
		c0.1-1.9,0.1-3.7,0.1-5.3C619.2,382,616.1,379.9,615.4,379.6z"/>
	<path class="st12" d="M433.1,443.3l0.9-7.2c0.2-1.7-1-3.2-2.6-3.4c-0.8-0.1-1.6-0.2-2.3-0.3c-19.8-2.6-38.6-8.3-56.1-16.8
		c-1.8-0.9-3.9,0.2-4.3,2.1l-2.9,13.2c-0.4,1.6,0.6,3.2,2.2,3.6c20.3,5.1,40.9,9,61.8,11.4C431.4,446.2,432.9,445,433.1,443.3z"/>
	<path class="st12" d="M278.8,344c-10.5-2.5-21.8-2-32.3,2.1c-1.2,0.5-2.2,1.5-2.5,2.8c-2,8.6-5.7,16.7-10.6,23.9
		c-1.3,1.9-0.7,4.4,1.2,5.6c9.6,5.9,19.3,11.4,29.2,16.5c6,3.1,13.2-0.8,13.9-7.5l4-39.2C282,346.3,280.7,344.4,278.8,344z"/>
	<path class="st12" d="M356.4,422.5l1.9-8.5c0.7-3.3-0.7-6.8-3.6-8.6c-17.2-11-32.5-25.1-45.3-41.7c-1.4-1.8-2.8-3.4-4.4-5
		c-4.8-4.9-13.1-2-13.8,4.9l-3.8,36.7c-0.4,3.5,1.5,6.8,4.8,8.2c17.6,7.7,35.6,14.4,53.9,20C350.6,429.9,355.3,427.1,356.4,422.5z"
		/>
	<path class="st12" d="M497.7,442l-0.2,1.7c-0.3,3,2.1,5.5,5.1,5.5c10.8-0.3,21.5-1,32.2-2.1c2.6-0.3,4.5-2.4,4.5-5l0-3.9
		c0-3.2-3-5.6-6.1-4.8c-9.8,2.4-20.2,3.7-30.7,4.2C499.9,437.6,497.9,439.5,497.7,442z"/>
	<path class="st12" d="M444.7,438.9l-0.5,4c-0.3,2.5,1.5,4.8,4,5c11.2,0.9,22.4,1.4,33.6,1.5c2.3,0,4.2-1.7,4.4-4l0.3-2.9
		c0.2-2.5-1.7-4.8-4.2-4.8c-11.2-0.4-22.3-1.4-32.8-2.5C447.2,434.8,445,436.5,444.7,438.9z"/>
	<path class="st12" d="M593.1,437.7c1.6-0.4,3.2-0.7,4.8-1.1c2.8-0.7,4.5-3.6,3.8-6.4l-7.5-28.2c-1-3.8-5.8-5.2-8.6-2.4
		c-0.1,0.1-0.1,0.1-0.2,0.2c-1.1,1.1-1.7,2.7-1.5,4.2l2.9,29.1C587.1,436.3,590.1,438.4,593.1,437.7z"/>
	<path class="st12" d="M452.8,543.4c5.2,0,10.1,0,14.9,0c0.2,0,0.4,0,0.6,0c4.9,0,9-3.7,9.5-8.6l2.2-23c0.5-5.2-3.4-9.9-8.6-10.3
		c-8.1-0.7-16.2-1.6-24.2-2.7c-5.2-0.7-10.1,3-10.7,8.2l-3.1,25.6c-0.7,5.5,3.5,10.4,9.1,10.6C445.8,543.3,449.3,543.4,452.8,543.4z
		"/>
	<path class="st12" d="M580.1,522.1c1.6-1,3.2-2,4.9-3c1.7-1.1,2.7-3.1,2.5-5.2l-0.9-9.8c-0.3-3.1-3.1-5.3-6.2-4.9
		c-0.9,0.1-1.8,0.2-2.6,0.3c-2.5,0.3-4.5,2.4-4.8,4.9l-1.2,12.4C571.4,521.3,576.2,524.4,580.1,522.1z"/>
	<path class="st12" d="M339.6,471.2c-16.4-6.2-32.4-13.3-47.9-21.2c-4.3-2.2-9.4,0.6-9.9,5.4l-2.7,26.5c-0.2,2.4,0.8,4.8,2.7,6.2
		c14.3,10.4,29.5,19.5,45.4,27c3.9,1.9,8.6-0.4,9.5-4.7l7-31.4C344.5,475.8,342.7,472.4,339.6,471.2z"/>
	<path class="st12" d="M522.9,536l4.5-23.1c1-4.9-2.8-9.5-7.9-9.5c-1.4,0-2.8,0-4.2,0c-5.4,0-10.7-0.1-16.1-0.3
		c-4.2-0.1-7.8,3-8.2,7.2l-2.3,24.3c-0.5,4.7,3.3,8.8,8.1,8.7c6.6-0.1,12.9-0.4,18.9-0.9C519.4,542.1,522.2,539.4,522.9,536z"/>
	<path class="st12" d="M223.9,408.4c-4.8-3.5-11.4,1.3-9.4,6.9c1.9,5.4,4.7,10.5,8.2,15.1c11.1,14.5,23.5,27.7,36.8,39.6
		c3.7,3.3,9.7,1,10.2-4l2.3-22.4c0.2-2.4-1-4.7-3.1-5.9C253.4,428.8,238.4,419,223.9,408.4z"/>
	<path class="st12" d="M600.6,508c3.9-3,7-6.5,9.4-10.7c0.8-1.3-0.4-2.9-1.8-2.6c-3.2,0.6-6.5,1.2-9.8,1.7c-0.9,0.2-1.5,1-1.4,1.9
		l0.8,8.5C598,508.1,599.5,508.8,600.6,508C600.6,508,600.6,508,600.6,508z"/>
	<path class="st12" d="M421.9,535.6l4.2-34.3c0.4-3.3-1.8-6.2-5-6.9c-20-3.9-39.7-9-59.1-15.3c-3.5-1.1-7.2,1-8,4.6l-7.6,34
		c-0.7,3,1,6.1,3.9,7.2c20.6,7.7,42.3,13.1,64.7,16c0,0,0,0,0.1,0C418.4,541.4,421.4,538.9,421.9,535.6z"/>
	<path class="st12" d="M539.6,507.9l-4.3,22.2c-0.9,4.8,3.5,9,8.2,7.8c4-1,7.9-2.3,11.9-3.7c2.4-0.9,4.1-3.1,4.4-5.7l1.8-19.2
		c0.4-4.1-3-7.6-7.2-7.3c-2.9,0.2-5.7,0.4-8.6,0.6C542.7,502.7,540.1,504.9,539.6,507.9z"/>
	<path class="st10" d="M471.9,260.8c-4-19.4,3-38.7,21.7-46.1"/>
	<path class="st10" d="M402.1,218.8c0,0,13.9,10.6,13.1,42"/>
	<path class="st10" d="M527.2,371.8c0,0,19.1,17.1,35.1,16"/>
	<path class="st13" d="M422.1,398.7c-9.5-3.2-14.5-13.5-11.3-23c3.2-9.5,13.5-14.5,23-11.3"/>
	<path class="st14" d="M430.7,388.9c8.2-5.7,19.5-3.8,25.2,4.4"/>
	<path class="st15" d="M243,508.3c0,0,290,178,371.8,47.9"/>
	<path class="st8" d="M226.1,511c0,0,298.8,196.6,398.2,83"/>
	<path class="st8" d="M421.8,569.1c0,0,73.6,30.8,117.4,8.1"/>
	<path class="st8" d="M222.6,222.1c0,0,54-101,177.3-57.9c65.6,22.9,80.2,10.2,108.3,7.2c0,0,68-9.9,95.5,50.6"/>
	<path class="st10" d="M647.7,313.3c14,14,14,36.7,0,50.6"/>
	<path class="st16" d="M605.1,284.2c8.6-2.6,18-3.1,27.4-1c28.8,6.5,46.9,35.1,40.5,63.9c-3.4,14.9-12.6,27-24.8,34.2"/>
	<path class="st16" d="M199.5,281.5c-48,3-82,56.6-73.3,95.1c2.8,12.7,8.9,23.8,17.1,32.7"/>
	<path class="st5" d="M232.1,322.1c2.8,6.2,4.4,13.1,4.4,20.4c0,27.1-21.9,49-49,49"/>
</g>
</svg>
